<?xml version="1.0" encoding="UTF-8"?>
<svg version="1.1" xmlns="http://www.w3.org/2000/svg" width="500" height="500">
<path d="M0 0 C0.99 0 1.98 0 3 0 C3.83144531 1.73056641 3.83144531 1.73056641 4.6796875 3.49609375 C6.87840617 7.88870511 9.42271495 11.965782 12.125 16.0625 C12.60727051 16.80218018 13.08954102 17.54186035 13.58642578 18.30395508 C15.856868 21.7772486 18.14965327 25.23364342 20.484375 28.6640625 C31.78561964 45.28516694 42.07715033 62.50089347 50 81 C50.35964844 81.83885742 50.71929687 82.67771484 51.08984375 83.54199219 C62.74764885 111.22409345 66.54295656 138.95747816 55.25 167.375 C52.29469648 173.89316943 48.46880149 179.43661353 44 185 C43.36578125 185.84433594 42.7315625 186.68867188 42.078125 187.55859375 C36.07044775 194.61648525 27.40666074 199.34372581 19 203 C18.33097656 203.3196875 17.66195312 203.639375 16.97265625 203.96875 C6.06575823 208.49061175 -7.05144531 206.9362099 -17.703125 202.62890625 C-23.16948686 199.92810898 -28.12752774 196.65253882 -33 193 C-33.84691406 192.36835938 -34.69382813 191.73671875 -35.56640625 191.0859375 C-50.38187335 178.3869657 -56.74048833 157.69426167 -59 139 C-61.31412223 103.53162653 -43.2358637 69.64822363 -24.26318359 40.91552734 C-22.64550631 38.46243574 -21.07066349 35.98339772 -19.5 33.5 C-17.87668029 30.94277043 -16.25026909 28.38782492 -14.60791016 25.84277344 C-13.0039001 23.35703569 -11.40807071 20.86616148 -9.8125 18.375 C-9.04486328 17.19260742 -9.04486328 17.19260742 -8.26171875 15.98632812 C-4.97771871 10.84110817 -2.31146259 5.64949393 0 0 Z " fill="#CB2407" transform="translate(249,139)"/>
<path d="M0 0 C0.99 0.495 0.99 0.495 2 1 C-2.62593978 17.7994655 -13.62622207 30.88693006 -28.609375 39.5 C-31.03928466 40.76777895 -33.48718196 41.90711044 -36 43 C-37.00353516 43.47953125 -37.00353516 43.47953125 -38.02734375 43.96875 C-48.93424177 48.49061175 -62.05144531 46.9362099 -72.703125 42.62890625 C-82.34446172 37.86535481 -91.45896217 31.59679257 -98 23 C-98 22.34 -98 21.68 -98 21 C-95.69 21.66 -93.38 22.32 -91 23 C-90.67 22.34 -90.34 21.68 -90 21 C-89.48953125 21.65355469 -89.48953125 21.65355469 -88.96875 22.3203125 C-79.64946636 33.77113442 -69.38250699 37.26692783 -55 39 C-52.63249824 39.12355649 -50.37063571 39.10775617 -48 39 C-48 38.34 -48 37.68 -48 37 C-47.28457031 37.17660156 -46.56914062 37.35320312 -45.83203125 37.53515625 C-39.28851093 38.60919614 -32.81583482 36.98505958 -27.375 33.25 C-23.94193042 30.41338292 -23.49178627 28.42607643 -23 24 C-20.59196729 22.14766715 -19.07258075 21 -16 21 C-15.67 19.02 -15.34 17.04 -15 15 C-14.34 15 -13.68 15 -13 15 C-12.01 11.7 -11.02 8.4 -10 5 C-9.01 5.495 -9.01 5.495 -8 6 C-8 6.99 -8 7.98 -8 9 C-5.03 8.505 -5.03 8.505 -2 8 C-1.855625 6.865625 -1.71125 5.73125 -1.5625 4.5625 C-1 1 -1 1 0 0 Z " fill="#B02609" transform="translate(304,299)"/>
<path d="M0 0 C0.99 0 1.98 0 3 0 C3.82564453 1.72089844 3.82564453 1.72089844 4.66796875 3.4765625 C6.92302438 7.98270883 9.54469847 12.16961708 12.3125 16.375 C13.03336792 17.47992798 13.03336792 17.47992798 13.76879883 18.60717773 C17.40139808 24.15128709 21.12714462 29.62029986 25 35 C24.505 35.99 24.505 35.99 24 37 C23.01 36.34 22.02 35.68 21 35 C20.34 35 19.68 35 19 35 C18.34 33.68 17.68 32.36 17 31 C16.34 31.66 15.68 32.32 15 33 C13 31.1875 13 31.1875 11 29 C11 28.01 11 27.02 11 26 C9.68 25.34 8.36 24.68 7 24 C7 23.01 7 22.02 7 21 C6.34 21 5.68 21 5 21 C5 19.68 5 18.36 5 17 C4.34 17 3.68 17 3 17 C3 16.34 3 15.68 3 15 C2.34 15 1.68 15 1 15 C0.9175 15.763125 0.835 16.52625 0.75 17.3125 C0 20 0 20 -1.9375 21.375 C-4.90367142 23.71198355 -5.02790856 26.43566474 -6 30 C-6.99 30.66 -7.98 31.32 -9 32 C-9.33 31.01 -9.66 30.02 -10 29 C-10.4125 28.2575 -10.825 27.515 -11.25 26.75 C-12.55694812 21.95785689 -9.34069385 17.51183899 -6.9921875 13.359375 C-6.29034435 12.15397896 -5.58459322 10.95085007 -4.875 9.75 C-2.0862826 5.0462913 -2.0862826 5.0462913 0 0 Z " fill="#DD2107" transform="translate(249,139)"/>
<path d="M0 0 C0.66 0.99 1.32 1.98 2 3 C1.34 3 0.68 3 0 3 C-0.33 5.64 -0.66 8.28 -1 11 C-0.01 11.33 0.98 11.66 2 12 C2.875 13.75 2.875 13.75 3 16 C1.75 18.4375 1.75 18.4375 0 21 C-0.495 21.86625 -0.99 22.7325 -1.5 23.625 C-3 26 -3 26 -4.609375 27.36328125 C-6.21893646 28.92117433 -6.21893646 28.92117433 -6.109375 31.19140625 C-5.99078125 31.97386719 -5.8721875 32.75632813 -5.75 33.5625 C-5.64171875 34.34753906 -5.5334375 35.13257813 -5.421875 35.94140625 C-5.08180814 38.05183551 -5.08180814 38.05183551 -4 40 C-4.33 40.66 -4.66 41.32 -5 42 C-3.02 41.505 -3.02 41.505 -1 41 C-2.96219923 43.94329885 -3.53959744 44.51728639 -6.51953125 45.97265625 C-7.55883789 46.48602539 -7.55883789 46.48602539 -8.61914062 47.00976562 C-9.34294922 47.35716797 -10.06675781 47.70457031 -10.8125 48.0625 C-11.52470703 48.41376953 -12.23691406 48.76503906 -12.97070312 49.12695312 C-16.59623832 50.9011512 -20.22260296 52.56770603 -24 54 C-22.48086812 49.67819165 -20.20779757 46.04027914 -17.6875 42.25 C-12.31815486 34.40869087 -12.31815486 34.40869087 -8 26 C-8.33 25.34 -8.66 24.68 -9 24 C-9.99 23.67 -10.98 23.34 -12 23 C-12 23.99 -12 24.98 -12 26 C-12.66 26.33 -13.32 26.66 -14 27 C-14.72159424 28.64363134 -15.39351421 30.31050386 -16 32 C-16.66 32 -17.32 32 -18 32 C-16.65643021 27.44380556 -14.81547914 23.75179989 -12.3046875 19.7265625 C-11.95238068 19.15795502 -11.60007385 18.58934753 -11.23709106 18.00350952 C-10.12215941 16.20700914 -8.99876483 14.41598513 -7.875 12.625 C-7.1127132 11.40009291 -6.3509888 10.17483564 -5.58984375 8.94921875 C-3.73304585 5.96207042 -1.86862496 2.9797679 0 0 Z " fill="#E0270D" transform="translate(229,173)"/>
<path d="M0 0 C2.31 0.66 4.62 1.32 7 2 C7.33 1.34 7.66 0.68 8 0 C8.51046875 0.65355469 8.51046875 0.65355469 9.03125 1.3203125 C16.25428515 10.19542483 25.59737517 16.77939609 37 19 C45.31646228 19.68525157 53.67364142 19.38543381 62 19 C61.67 19.66 61.34 20.32 61 21 C59.66666667 21.33333333 58.33333333 21.66666667 57 22 C56.67 22.66 56.34 23.32 56 24 C44.96408273 27.67863909 32.09927181 24.9898061 22 20 C13.66020488 15.10279472 5.88424665 9.73358131 0 2 C0 1.34 0 0.68 0 0 Z " fill="#AC250A" transform="translate(206,320)"/>
<path d="M0 0 C0.66 0 1.32 0 2 0 C2.19916016 0.93972656 2.19916016 0.93972656 2.40234375 1.8984375 C2.57894531 2.71570313 2.75554687 3.53296875 2.9375 4.375 C3.11152344 5.18710938 3.28554687 5.99921875 3.46484375 6.8359375 C3.92330693 9.029463 3.92330693 9.029463 5 11 C4.67 11.66 4.34 12.32 4 13 C5.32 12.67 6.64 12.34 8 12 C6.03780077 14.94329885 5.46040256 15.51728639 2.48046875 16.97265625 C1.44116211 17.48602539 1.44116211 17.48602539 0.38085938 18.00976562 C-0.34294922 18.35716797 -1.06675781 18.70457031 -1.8125 19.0625 C-2.52470703 19.41376953 -3.23691406 19.76503906 -3.97070312 20.12695312 C-7.59623832 21.9011512 -11.22260296 23.56770603 -15 25 C-13.46230226 20.62665536 -11.16012635 16.91075553 -8.625 13.0625 C-8.23828125 12.46759766 -7.8515625 11.87269531 -7.453125 11.25976562 C-6.68427803 10.07940493 -5.91123616 8.90176481 -5.13378906 7.72705078 C-4.3724675 6.56736328 -3.62451621 5.39879662 -2.88964844 4.22216797 C-1.97707809 2.78142322 -0.99426697 1.38562738 0 0 Z " fill="#E75943" transform="translate(220,202)"/>
<path d="M0 0 C1.9375 0.3125 1.9375 0.3125 4 1 C4.33 1.99 4.66 2.98 5 4 C3.69483158 6.53078934 2.36145172 8.8152959 0.8125 11.1875 C0.41224609 11.84169922 0.01199219 12.49589844 -0.40039062 13.16992188 C-1.60546875 15.04296875 -1.60546875 15.04296875 -4 18 C-5.32 18 -6.64 18 -8 18 C-7.34 15.03 -6.68 12.06 -6 9 C-5.34 9 -4.68 9 -4 9 C-3.34 7.02 -2.68 5.04 -2 3 C-1.34 3 -0.68 3 0 3 C0 2.01 0 1.02 0 0 Z " fill="#E02005" transform="translate(217,196)"/>
<path d="M0 0 C0.78503906 0.144375 1.57007813 0.28875 2.37890625 0.4375 C7.99610964 1.42998747 13.29497537 2.2593193 19 2 C19 1.34 19 0.68 19 0 C19.61875 0.185625 20.2375 0.37125 20.875 0.5625 C24.66462203 1.09304708 28.01567377 0.65460376 31.79296875 0.15625 C34 0 34 0 36 1 C37.67654729 0.72057545 39.34608154 0.39171753 41 0 C37.14191367 3.49639074 33.09289723 5.85995815 28 7 C27.01 6.67 26.02 6.34 25 6 C26.65 5.34 28.3 4.68 30 4 C28.95658447 4.01571045 28.95658447 4.01571045 27.89208984 4.03173828 C24.71976377 4.07348637 21.54749569 4.09938585 18.375 4.125 C17.28058594 4.14175781 16.18617188 4.15851563 15.05859375 4.17578125 C5.01920021 4.23662606 5.01920021 4.23662606 0 2 C0 1.34 0 0.68 0 0 Z " fill="#A73118" transform="translate(237,336)"/>
<path d="M0 0 C0.99 0.33 1.98 0.66 3 1 C3.828125 2.78125 3.828125 2.78125 4 5 C3.109375 7.21875 3.109375 7.21875 1.75 9.5 C1.31171875 10.2528125 0.8734375 11.005625 0.421875 11.78125 C-0.95999585 13.93757594 -2.43451901 15.97408343 -4 18 C-5.32 17.67 -6.64 17.34 -8 17 C-7.11223998 13.30099992 -6.05418136 9.65449539 -5 6 C-4.34 6 -3.68 6 -3 6 C-2.67 5.01 -2.34 4.02 -2 3 C-1.34 3 -0.68 3 0 3 C0 2.01 0 1.02 0 0 Z " fill="#E71E02" transform="translate(235,167)"/>
<path d="M0 0 C0.99 0 1.98 0 3 0 C6 6 6 6 9 12 C7.35 12.33 5.7 12.66 4 13 C4 10.69 4 8.38 4 6 C0.88214887 6.64644661 0.88214887 6.64644661 0 9 C-0.66 9 -1.32 9 -2 9 C-2.33 11.31 -2.66 13.62 -3 16 C-3.804375 16.2475 -4.60875 16.495 -5.4375 16.75 C-8.171081 17.72238859 -8.171081 17.72238859 -8.8125 20.125 C-8.874375 20.74375 -8.93625 21.3625 -9 22 C-9.66 22 -10.32 22 -11 22 C-9.43303397 17.68469041 -7.25764831 13.81800696 -4.9375 9.875 C-2.11484561 5.10966103 -2.11484561 5.10966103 0 0 Z " fill="#D6402C" transform="translate(249,139)"/>
<path d="M0 0 C1.13583456 3.71727674 0.66670026 5.47051709 -1 9 C-0.01 9 0.98 9 2 9 C0.35821735 13.77609498 -2.26546702 17.79382904 -5 22 C-5.66 21.34 -6.32 20.68 -7 20 C-7.99 20.99 -8.98 21.98 -10 23 C-7.60292686 14.82175048 -3.91141228 7.53348722 0 0 Z " fill="#D52C14" transform="translate(210,205)"/>
<path d="M0 0 C3 1 3 1 3.94921875 2.84765625 C4.19285156 3.57855469 4.43648437 4.30945313 4.6875 5.0625 C4.93886719 5.79597656 5.19023437 6.52945312 5.44921875 7.28515625 C5.63097656 7.85105469 5.81273437 8.41695313 6 9 C6.66 8.67 7.32 8.34 8 8 C8.10957031 8.56589844 8.21914062 9.13179688 8.33203125 9.71484375 C8.49058594 10.44832031 8.64914063 11.18179687 8.8125 11.9375 C8.96332031 12.66839844 9.11414063 13.39929688 9.26953125 14.15234375 C9.63111328 15.06693359 9.63111328 15.06693359 10 16 C10.99 16.33 11.98 16.66 13 17 C12.34 17.66 11.68 18.32 11 19 C11.32041397 21.60280568 11.32041397 21.60280568 12 24 C8.24143396 20.73925728 6.31581654 17.0274081 4.3125 12.5625 C4.00505859 11.90701172 3.69761719 11.25152344 3.38085938 10.57617188 C1.77884561 7.08118779 0.55080517 3.81157175 0 0 Z " fill="#B43015" transform="translate(194,296)"/>
<path d="M0 0 C4.17906895 3.55994763 6.68559431 8.08663054 9 13 C9 13.66 9 14.32 9 15 C8.34 15 7.68 15 7 15 C7 14.34 7 13.68 7 13 C6.566875 13.495 6.13375 13.99 5.6875 14.5 C4 16 4 16 1 16 C-2 10.25 -2 10.25 -2 8 C-0.68 8.33 0.64 8.66 2 9 C1.41196203 5.97580475 0.77321882 2.98241547 0 0 Z " fill="#CF2E17" transform="translate(278,183)"/>
<path d="M0 0 C0.66 0.33 1.32 0.66 2 1 C1.75118125 4.64934161 1.44418394 6.5154357 -1.0625 9.25 C-4.71086497 11.42349403 -7.84681658 12.15528473 -12 13 C-12 12.01 -12 11.02 -12 10 C-10.13671875 8.28125 -10.13671875 8.28125 -7.6875 6.5 C-4.92241262 4.46959767 -2.35520931 2.50002801 0 0 Z " fill="#AC2509" transform="translate(284,325)"/>
<path d="M0 0 C1.0143032 2.63718833 0.97056421 4.17661471 0.5 7 C-1.60551017 11.21102035 -3.73578029 12.09633049 -8 14 C-8.66 13.67 -9.32 13.34 -10 13 C-7.3265957 7.67594378 -5.1154241 3.36156441 0 0 Z " fill="#EB6551" transform="translate(215,213)"/>
<path d="M0 0 C2.475 0.495 2.475 0.495 5 1 C6.875 3.875 6.875 3.875 8 7 C7.67 7.99 7.34 8.98 7 10 C5.02 10.33 3.04 10.66 1 11 C0.67 7.37 0.34 3.74 0 0 Z " fill="#D51E03" transform="translate(273,182)"/>
<path d="M0 0 C1.0625 1.875 1.0625 1.875 2 4 C1.67 4.66 1.34 5.32 1 6 C2.32 5.67 3.64 5.34 5 5 C2.80856082 8.28715877 1.46955182 9.0353959 -2 10.75 C-2.886875 11.19859375 -3.77375 11.6471875 -4.6875 12.109375 C-5.450625 12.40328125 -6.21375 12.6971875 -7 13 C-7.66 12.67 -8.32 12.34 -9 12 C-8.401875 11.484375 -7.80375 10.96875 -7.1875 10.4375 C-5.22249926 8.24792775 -4.43483298 6.9539299 -3.375 4.3125 C-2 1 -2 1 0 0 Z " fill="#E85037" transform="translate(223,209)"/>
<path d="M0 0 C1.32 0 2.64 0 4 0 C4.33 0.66 4.66 1.32 5 2 C6.64363134 2.72159424 8.31050386 3.39351421 10 4 C10 4.66 10 5.32 10 6 C11.65 6 13.3 6 15 6 C15 5.34 15 4.68 15 4 C15.66 4 16.32 4 17 4 C17.33 4.99 17.66 5.98 18 7 C18.99 7.33 19.98 7.66 21 8 C21.33 8.99 21.66 9.98 22 11 C13.56817819 9.28754103 6.88567875 6.19422575 0 1 C0 0.67 0 0.34 0 0 Z " fill="#A12D12" transform="translate(219,333)"/>
<path d="M0 0 C0.94721647 3.42625958 1 6.44595502 1 10 C1.33 10.99 1.66 11.98 2 13 C1.01 13.66 0.02 14.32 -1 15 C-1.33 15.99 -1.66 16.98 -2 18 C-2.66 18 -3.32 18 -4 18 C-4 19.65 -4 21.3 -4 23 C-4.33 23 -4.66 23 -5 23 C-5.29785422 17.3333235 -4.31081409 12.91174271 -2.5 7.5625 C-2.26152344 6.83095703 -2.02304688 6.09941406 -1.77734375 5.34570312 C-1.19403828 3.5607884 -0.59830065 1.77994443 0 0 Z " fill="#CE3924" transform="translate(197,234)"/>
<path d="M0 0 C0.103125 0.61875 0.20625 1.2375 0.3125 1.875 C0.87525373 4.36526484 0.87525373 4.36526484 4 6 C3.74445946 7.46109063 3.46999628 8.91888096 3.1875 10.375 C3.03667969 11.18710938 2.88585937 11.99921875 2.73046875 12.8359375 C2 15 2 15 -1 17 C-0.67 15.02 -0.34 13.04 0 11 C0.66 11 1.32 11 2 11 C1.34 10.34 0.68 9.68 0 9 C-2.08333333 9.16666667 -2.08333333 9.16666667 -4 10 C-4.33 10.66 -4.66 11.32 -5 12 C-5.66 12 -6.32 12 -7 12 C-5.44298069 7.32894208 -2.91552627 3.91294315 0 0 Z " fill="#DD1F01" transform="translate(237,161)"/>
<path d="M0 0 C0.33 0.99 0.66 1.98 1 3 C2.65 3.33 4.3 3.66 6 4 C4.12050295 7.57104439 2.82946843 9.54744301 -1 11 C-1 9.35 -1 7.7 -1 6 C-2.98 6.99 -2.98 6.99 -5 8 C-5.3125 5.6875 -5.3125 5.6875 -5 3 C-2.5 1.1875 -2.5 1.1875 0 0 Z " fill="#AD2E13" transform="translate(286,320)"/>
<path d="M0 0 C0.78503906 0.144375 1.57007813 0.28875 2.37890625 0.4375 C7.99610964 1.42998747 13.29497537 2.2593193 19 2 C19 1.34 19 0.68 19 0 C22.02419525 0.58803797 25.01758453 1.22678118 28 2 C23.27654477 3.8598605 19.02240658 4.30664368 14 4.25 C12.97132813 4.26160156 12.97132813 4.26160156 11.921875 4.2734375 C7.57469165 4.2568452 4.03886007 3.59030115 0 2 C0 1.34 0 0.68 0 0 Z " fill="#C8523B" transform="translate(237,336)"/>
<path d="M0 0 C0.33 0.66 0.66 1.32 1 2 C-0.25 4.3125 -0.25 4.3125 -2 7 C-2.495 7.86625 -2.99 8.7325 -3.5 9.625 C-4.84159736 11.74919583 -6.1469126 13.32339712 -8 15 C-8.99 14.67 -9.98 14.34 -11 14 C-9.73636527 12.03701399 -8.4638372 10.07975066 -7.1875 8.125 C-6.47980469 7.03445312 -5.77210938 5.94390625 -5.04296875 4.8203125 C-3 2 -3 2 0 0 Z " fill="#DD3820" transform="translate(231,187)"/>
<path d="M0 0 C4.95 1.32 9.9 2.64 15 4 C14.67 4.66 14.34 5.32 14 6 C10.7 6 7.4 6 4 6 C4 5.34 4 4.68 4 4 C2.68 3.67 1.36 3.34 0 3 C0 2.01 0 1.02 0 0 Z " fill="#B12103" transform="translate(236,337)"/>
<path d="M0 0 C0.66 0.33 1.32 0.66 2 1 C2 2.32 2 3.64 2 5 C2.99 4.67 3.98 4.34 5 4 C5.33 4.99 5.66 5.98 6 7 C5.01 7 4.02 7 3 7 C2.67 8.32 2.34 9.64 2 11 C1.67 10.01 1.34 9.02 1 8 C0.01 7.67 -0.98 7.34 -2 7 C-2.33 5.35 -2.66 3.7 -3 2 C-2.01 1.34 -1.02 0.68 0 0 Z " fill="#D81D02" transform="translate(266,169)"/>
<path d="M0 0 C0.66 0.99 1.32 1.98 2 3 C1.34 3 0.68 3 0 3 C0 3.99 0 4.98 0 6 C-0.66 6 -1.32 6 -2 6 C-2 6.99 -2 7.98 -2 9 C-2.66 9 -3.32 9 -4 9 C-4 10.32 -4 11.64 -4 13 C-4.99 13.495 -4.99 13.495 -6 14 C-6.72159424 15.64363134 -7.39351421 17.31050386 -8 19 C-8.66 19 -9.32 19 -10 19 C-8.62394084 14.23448987 -6.53221934 10.2751447 -3.875 6.125 C-3.50246094 5.53203125 -3.12992188 4.9390625 -2.74609375 4.328125 C-1.83635 2.8818657 -0.91896202 1.44041954 0 0 Z " fill="#D74634" transform="translate(221,186)"/>
<path d="M0 0 C1.99775873 2.99663809 2.98997415 5.53662626 4.125 8.9375 C4.47820312 9.97777344 4.83140625 11.01804688 5.1953125 12.08984375 C6 15 6 15 6 19 C5.01 18.67 4.02 18.34 3 18 C3 15.36 3 12.72 3 10 C2.34 10 1.68 10 1 10 C0.67 6.7 0.34 3.4 0 0 Z " fill="#BB432D" transform="translate(302,230)"/>
<path d="M0 0 C-0.66 2.31 -1.32 4.62 -2 7 C-4.97 6.67 -7.94 6.34 -11 6 C-3.8 0 -3.8 0 0 0 Z " fill="#E12109" transform="translate(225,217)"/>
<path d="M0 0 C0.99 1.32 1.98 2.64 3 4 C1.68 5.32 0.36 6.64 -1 8 C-0.34 8 0.32 8 1 8 C0.67 9.32 0.34 10.64 0 12 C-0.66 11.34 -1.32 10.68 -2 10 C-2.99 10.99 -3.98 11.98 -5 13 C-4.54554036 11.58208592 -4.08625056 10.16571954 -3.625 8.75 C-3.24214844 7.56664062 -3.24214844 7.56664062 -2.8515625 6.359375 C-2.04826333 4.13372042 -1.10288338 2.09068328 0 0 Z " fill="#D64934" transform="translate(205,215)"/>
<path d="M0 0 C0.66 0.33 1.32 0.66 2 1 C-1.00366684 10.77789419 -1.00366684 10.77789419 -4 15 C-4.33 15 -4.66 15 -5 15 C-5.37210831 10.65873643 -4.34221021 8.60340032 -2 5 C-1.30177383 3.34630643 -0.62501395 1.68272986 0 0 Z " fill="#AC3E25" transform="translate(304,299)"/>
<path d="M0 0 C-1 2 -1 2 -3.1875 3.125 C-6.26769331 4.08328236 -8.79309948 4.14915816 -12 4 C-12 3.01 -12 2.02 -12 1 C-7.95858806 0.36605303 -4.0934693 -0.12404452 0 0 Z " fill="#AF2002" transform="translate(268,339)"/>
<path d="M0 0 C0.66 1.32 1.32 2.64 2 4 C0.02 5.32 -1.96 6.64 -4 8 C-4.66 7.67 -5.32 7.34 -6 7 C-4.19587357 3.73539027 -3.16605307 2.11070205 0 0 Z " fill="#F56A55" transform="translate(211,219)"/>
<path d="M0 0 C2.38672669 2.96283313 4.7353371 5.94270509 7 9 C6.67 9.66 6.34 10.32 6 11 C5.01 10.34 4.02 9.68 3 9 C2.34 9 1.68 9 1 9 C0.67 6.03 0.34 3.06 0 0 Z " fill="#D03D29" transform="translate(267,165)"/>
<path d="M0 0 C0.99 0.33 1.98 0.66 3 1 C5.63804589 0.60602665 5.63804589 0.60602665 8 0 C5.75 2.5 5.75 2.5 3 5 C1.68 5 0.36 5 -1 5 C-0.67 3.35 -0.34 1.7 0 0 Z " fill="#C75037" transform="translate(273,328)"/>
<path d="M0 0 C1.9375 0.3125 1.9375 0.3125 4 1 C4.33 1.99 4.66 2.98 5 4 C2.69 4.66 0.38 5.32 -2 6 C-2 5.01 -2 4.02 -2 3 C-1.34 3 -0.68 3 0 3 C0 2.01 0 1.02 0 0 Z " fill="#E91D02" transform="translate(217,196)"/>
<path d="M0 0 C1 2 1 2 0.375 4.5625 C-1 7 -1 7 -3.625 7.8125 C-4.40875 7.874375 -5.1925 7.93625 -6 8 C-2.25 1.125 -2.25 1.125 0 0 Z " fill="#E4442D" transform="translate(226,194)"/>
<path d="M0 0 C0.33 0.66 0.66 1.32 1 2 C-1.76756757 9.61081081 -1.76756757 9.61081081 -5 12 C-5.66 12 -6.32 12 -7 12 C-5.44298069 7.32894208 -2.91552627 3.91294315 0 0 Z " fill="#D94A3E" transform="translate(237,161)"/>
<path d="M0 0 C1.32 0 2.64 0 4 0 C4.33 0.66 4.66 1.32 5 2 C5.825 2.309375 6.65 2.61875 7.5 2.9375 C8.7375 3.4634375 8.7375 3.4634375 10 4 C10.33 4.99 10.66 5.98 11 7 C6.89188572 5.55007731 3.53144334 3.54592427 0 1 C0 0.67 0 0.34 0 0 Z " fill="#A1351C" transform="translate(219,333)"/>
<path d="M0 0 C0.33 0 0.66 0 1 0 C1 2.97 1 5.94 1 9 C0.34 9 -0.32 9 -1 9 C-1 10.65 -1 12.3 -1 14 C-1.33 14 -1.66 14 -2 14 C-2.21192221 8.80790596 -1.5912689 4.873261 0 0 Z " fill="#CE5540" transform="translate(194,243)"/>
<path d="M0 0 C1.98 0.66 3.96 1.32 6 2 C6.33 3.98 6.66 5.96 7 8 C6.34 8 5.68 8 5 8 C0 2.52380952 0 2.52380952 0 0 Z " fill="#AE3E29" transform="translate(206,320)"/>
<path d="M0 0 C0.66 0 1.32 0 2 0 C2.33 2.31 2.66 4.62 3 7 C1.0625 6.6875 1.0625 6.6875 -1 6 C-1.33 5.01 -1.66 4.02 -2 3 C-1.34 2.01 -0.68 1.02 0 0 Z " fill="#E2523C" transform="translate(220,202)"/>
<path d="M0 0 C0.99 0.33 1.98 0.66 3 1 C4.1875 4.5625 4.1875 4.5625 5 8 C4.34 8.66 3.68 9.32 3 10 C2.01 6.7 1.02 3.4 0 0 Z " fill="#BC4834" transform="translate(194,296)"/>
<path d="M0 0 C0.33 0.66 0.66 1.32 1 2 C0.67 2.66 0.34 3.32 0 4 C-0.66 4 -1.32 4 -2 4 C-2.66 5.32 -3.32 6.64 -4 8 C-5 5 -5 5 -5 3 C-2.5 1.375 -2.5 1.375 0 0 Z " fill="#C44A30" transform="translate(286,320)"/>
<path d="M0 0 C0 0.99 0 1.98 0 3 C-2.5 4.6875 -2.5 4.6875 -5 6 C-5.66 5.34 -6.32 4.68 -7 4 C-4.69 2.68 -2.38 1.36 0 0 Z " fill="#D92B11" transform="translate(210,224)"/>
<path d="M0 0 C2.18975773 3.28463659 2.99806563 6.20696275 4 10 C3.01 10 2.02 10 1 10 C0.67 6.7 0.34 3.4 0 0 Z " fill="#BE503D" transform="translate(302,230)"/>
<path d="M0 0 C1.5625 1.6875 1.5625 1.6875 3 4 C2.6875 6.75 2.6875 6.75 2 9 C1.34 8.67 0.68 8.34 0 8 C0 5.36 0 2.72 0 0 Z " fill="#C13724" transform="translate(299,223)"/>
<path d="M0 0 C0.66 0 1.32 0 2 0 C2 2.31 2 4.62 2 7 C1.01 7.495 1.01 7.495 0 8 C-0.98120464 4.94736336 -0.98120464 3.05263664 0 0 Z " fill="#E3604B" transform="translate(216,211)"/>
</svg>
